<?xml version="1.0" encoding="utf-8"?>
<COLLADA xmlns="http://www.collada.org/2005/11/COLLADASchema" version="1.4.1" xmlns:xsi="http://www.w3.org/2001/XMLSchema-instance">
  <asset>
    <contributor>
      <author>Blender User</author>
      <authoring_tool>Blender 4.0.2 commit date:2023-12-05, commit time:07:41, hash:9be62e85b727</authoring_tool>
    </contributor>
    <created>2024-04-06T14:06:46</created>
    <modified>2024-04-06T14:06:46</modified>
    <unit name="meter" meter="1"/>
    <up_axis>Z_UP</up_axis>
  </asset>
  <library_cameras>
    <camera id="Camera-camera" name="Camera">
      <optics>
        <technique_common>
          <perspective>
            <xfov sid="xfov">39.59775</xfov>
            <aspect_ratio>1.777778</aspect_ratio>
            <znear sid="znear">0.1</znear>
            <zfar sid="zfar">100</zfar>
          </perspective>
        </technique_common>
      </optics>
      <extra>
        <technique profile="blender">
          <shiftx sid="shiftx" type="float">0</shiftx>
          <shifty sid="shifty" type="float">0</shifty>
          <dof_distance sid="dof_distance" type="float">10</dof_distance>
        </technique>
      </extra>
    </camera>
  </library_cameras>
  <library_lights>
    <light id="Light-light" name="Light">
      <technique_common>
        <point>
          <color sid="color">1000 1000 1000</color>
          <constant_attenuation>1</constant_attenuation>
          <linear_attenuation>0</linear_attenuation>
          <quadratic_attenuation>0</quadratic_attenuation>
        </point>
      </technique_common>
      <extra>
        <technique profile="blender">
          <type sid="type" type="int">0</type>
          <flag sid="flag" type="int">0</flag>
          <mode sid="mode" type="int">1</mode>
          <red sid="red" type="float">1</red>
          <green sid="green" type="float">1</green>
          <blue sid="blue" type="float">1</blue>
          <shadow_r sid="blender_shadow_r" type="float">0</shadow_r>
          <shadow_g sid="blender_shadow_g" type="float">0</shadow_g>
          <shadow_b sid="blender_shadow_b" type="float">0</shadow_b>
          <energy sid="blender_energy" type="float">1000</energy>
          <spotsize sid="spotsize" type="float">75</spotsize>
          <spotblend sid="spotblend" type="float">0.15</spotblend>
          <clipsta sid="clipsta" type="float">0.04999995</clipsta>
          <clipend sid="clipend" type="float">30.002</clipend>
          <bias sid="bias" type="float">1</bias>
          <radius sid="radius" type="float">0.1</radius>
          <area_shape sid="area_shape" type="int">1</area_shape>
          <area_size sid="area_size" type="float">0.1</area_size>
          <area_sizey sid="area_sizey" type="float">0.1</area_sizey>
          <area_sizez sid="area_sizez" type="float">1</area_sizez>
        </technique>
      </extra>
    </light>
  </library_lights>
  <library_effects>
    <effect id="Material-effect">
      <profile_COMMON>
        <newparam sid="win_jpg-surface">
          <surface type="2D">
            <init_from>win_jpg</init_from>
          </surface>
        </newparam>
        <newparam sid="win_jpg-sampler">
          <sampler2D>
            <source>win_jpg-surface</source>
          </sampler2D>
        </newparam>
        <technique sid="common">
          <lambert>
            <emission>
              <color sid="emission">1 1 1 1</color>
            </emission>
            <diffuse>
              <texture texture="win_jpg-sampler" texcoord="UVMap"/>
            </diffuse>
            <index_of_refraction>
              <float sid="ior">1.45</float>
            </index_of_refraction>
          </lambert>
        </technique>
      </profile_COMMON>
    </effect>
  </library_effects>
  <library_images>
    <image id="win_jpg" name="win_jpg">
      <init_from>win.jpg</init_from>
    </image>
  </library_images>
  <library_materials>
    <material id="Material-material" name="Material">
      <instance_effect url="#Material-effect"/>
    </material>
  </library_materials>
  <library_geometries>
    <geometry id="Cube-mesh" name="Cube">
      <mesh>
        <source id="Cube-mesh-positions">
          <float_array id="Cube-mesh-positions-array" count="264">1 1 0.9999995 1 1 -0.9999995 1 -1 0.9999995 1 -1 -0.9999995 -0.04552656 0.4215651 0.1941235 -1 1 0.9999995 -1 1 -0.9999995 -1 -1 0.9999995 -1 -1 -0.9999995 -0.7237221 -0.535197 0.9999995 -0.729083 -0.3189738 0.9999995 -0.7203863 -0.01022362 0.9999995 -0.7130004 -0.1920991 0.9999995 -0.4163368 0.3036199 0.9999995 0.356771 0.3625753 0.9999995 -0.007755994 0.4261456 0.9999995 -0.02263593 0.3927649 0.9999995 -0.04591572 0.3874937 0.9999995 -0.04020673 -0.5762973 0.9999995 0.2671568 0.1633986 0.9999995 0.3859851 -0.2278385 0.9999995 0.4798009 -0.2742997 0.9999995 0.439594 -0.363648 0.9999995 0.3778694 0.3691827 0.9999995 0.2921692 -0.5762973 0.9999995 0.4101362 0.002488017 0.9999995 0.3607135 0.3372945 0.9999995 -0.007755994 0.4261456 -0.9999995 0.2671568 0.1633986 -0.9999995 0.4798009 -0.2742997 -0.9999995 0.439594 -0.363648 -0.9999995 0.3859851 -0.2278385 -0.9999995 0.4101362 0.002488017 -0.9999995 0.3778694 0.3691827 -0.9999995 0.3607135 0.3372945 -0.9999995 0.356771 0.3625753 -0.9999995 -0.7237221 -0.535197 -0.9999995 -0.729083 -0.3189738 -0.9999995 -0.6725772 -0.1714987 0.00564301 -0.7203863 -0.01022362 -0.9999995 -0.6772866 -0.1396211 0.00564301 -0.7130004 -0.1920991 -0.9999995 -0.6725772 -0.1077436 0.00564301 -0.6586297 -0.07709115 0.00564301 -0.4163368 0.3036199 -0.9999995 0.2921692 -0.5762973 -0.9999995 -0.04020673 -0.5762973 -0.9999995 -0.6725772 -0.1714987 0.9999995 -0.6772866 -0.1396211 0.9999995 -0.6646206 -0.1889848 0.9999995 -0.6582775 -0.07665187 0.9999995 -0.6586297 -0.07709115 0.9999995 -0.6725772 -0.1077436 0.9999995 -0.6725772 -0.1714987 -0.9999995 -0.6772866 -0.1396211 -0.9999995 -0.6646206 -0.1889848 -0.9999995 -0.6582775 -0.07665187 -0.9999995 -0.6586297 -0.07709115 -0.9999995 -0.6725772 -0.1077436 -0.9999995 -0.6646206 -0.1889848 0.00564301 -0.6582775 -0.07665187 0.00564301 -0.1529758 0.3632522 -0.9999995 -0.02714228 0.4065093 -0.9999995 -0.04552656 0.4215651 -0.9999995 -0.04591572 0.3874937 0.1941235 -0.02714228 0.4065093 0.1941235 -0.1529758 0.3632522 0.1941235 -0.02263593 0.3927649 0.1941235 -0.09813064 0.3756707 0.9999995 -0.09139662 0.3793253 0.9999995 -0.08935928 0.3776568 0.9999995 -0.07070755 0.362382 0.9999995 -0.07070755 0.362382 0.1941235 -0.09813064 0.3756707 0.1941235 -0.08935928 0.3776568 0.1941235 -0.06233549 0.3555257 0.9999995 -0.06233549 0.3555257 0.1941235 -0.09139662 0.3793253 0.1941235 0.4083882 -0.01418215 0.9999995 0.4132111 6.59186e-4 0.9999995 0.4182165 -9.99413e-4 0.9999995 0.4083882 -0.01418215 -0.9999995 0.4132111 6.59186e-4 -0.9999995 0.4182165 -9.99413e-4 -0.9999995 0.4100541 0.001705229 0.9999995 0.4100541 0.001705229 -0.9999995 0.4095931 0.001857995 0.9999995 0.4095931 0.001857995 -0.9999995</float_array>
          <technique_common>
            <accessor source="#Cube-mesh-positions-array" count="88" stride="3">
              <param name="X" type="float"/>
              <param name="Y" type="float"/>
              <param name="Z" type="float"/>
            </accessor>
          </technique_common>
        </source>
        <source id="Cube-mesh-normals">
          <float_array id="Cube-mesh-normals-array" count="351">0 0 1 0 -1 0 -1 0 0 0 0 -1 0 0 -1 1 0 0 0 1 0 0.9996928 0.02478545 0 -0.9945476 0.1042842 0 -0.9945484 0.1042762 0 0.7182247 -0.6958113 0 0.7116237 -0.7025609 0 0.7116232 -0.7025614 0 -0.4437964 -0.8961277 0 0.2208379 -0.9753106 0 0.2208378 -0.9753106 0 0.2208375 -0.9753106 0 -0.1461301 -0.9892654 0 -0.9119208 0.4103662 0 -0.6841443 0.7293468 0 0.9119478 -0.4103064 0 -0.8218194 0.5697481 0 -0.8806391 0.4737877 0 -0.8806393 0.4737874 0 0.06424027 -0.9979345 0 -0.9880575 -0.1540858 0 -0.9880575 -0.1540855 0 0.9920616 -0.1257538 0 0.06002229 0.998197 0 0.7574684 -0.6528719 0 0.7304561 0.6829597 0 0.9102056 0.4141567 0 0.9892624 0.1461508 0 0.9892624 -0.1461508 0 0.9102041 -0.4141603 0 0.7801119 -0.62564 0 0.9102048 -0.4141587 0 0.7800751 -0.6256859 0 0.910205 0.4141581 0 0.9892625 0.1461503 0 0.9892625 -0.1461503 0 0.4769859 -0.878911 0 -0.633593 -0.7736666 0 1.25818e-6 0 -1 0.4769862 -0.8789108 0 -0.6335954 -0.7736647 0 -0.3145385 -0.9492447 0 -0.8017095 0.597714 0 1.81139e-7 0 1 4.80984e-6 0 1 -4.40752e-7 0 1 1.26208e-6 0 1 1.67181e-5 0 1 -5.37712e-6 0 1 4.7891e-7 0 1 7.71657e-6 0 1 -7.66885e-7 0 1 -2.79855e-7 0 1 7.06711e-7 0 1 1.50931e-7 0 1 -2.50613e-5 0 1 1.08054e-6 0 1 -1.06956e-6 0 -1 9.5782e-7 0 -1 -2.68856e-6 0 -1 1.54331e-5 0 -1 -1.39927e-7 0 -1 3.93913e-7 0 -1 8.35904e-6 0 -1 8.03978e-6 0 -1 0 0 -1 -7.45495e-6 0 -1 -3.73006e-5 0 -1 3.90215e-6 0 -1 8.10405e-7 0 -1 -2.33055e-7 0 -1 -1.87135e-7 0 -1 -0.9945477 0.1042839 0 0.7182245 -0.6958115 0 0.7116236 -0.702561 0 0.7116231 -0.7025614 0 0.7116234 -0.7025612 0 0.7116238 -0.7025609 0 -0.4437966 -0.8961275 0 0.220838 -0.9753105 0 0.2208378 -0.9753106 0 0.2208379 -0.9753106 0 0.220838 -0.9753106 0 0.2208375 -0.9753107 0 -0.1461301 -0.9892654 0 -0.9119213 0.4103653 0 -0.6841443 0.7293468 0 0.9119479 -0.4103062 0 -0.8218194 0.5697484 0 -0.8806399 0.4737865 0 -0.8806394 0.4737872 0 0.06424039 -0.9979345 0 0.06424009 -0.9979345 0 -0.9880576 -0.1540852 0 0.9920617 -0.1257529 0 0.7304561 0.6829597 0 0.7304561 0.6829597 0 0.9102033 0.4141618 0 0.910204 -0.4141603 0 0.7802146 -0.6255119 0 0.9102034 -0.4141617 0 0.7802829 -0.6254267 0 0.910205 0.4141581 0 0.9892625 0.1461504 0 0.9892625 -0.1461504 0 -0.633593 -0.7736666 0 7.36529e-7 0 -1 -6.02245e-7 0 -1 0.4769853 -0.8789113 0 -0.6335919 -0.7736675 0 -0.3145352 -0.9492459 0 -0.8017112 0.5977117 0</float_array>
          <technique_common>
            <accessor source="#Cube-mesh-normals-array" count="117" stride="3">
              <param name="X" type="float"/>
              <param name="Y" type="float"/>
              <param name="Z" type="float"/>
            </accessor>
          </technique_common>
        </source>
        <source id="Cube-mesh-map-0">
          <float_array id="Cube-mesh-map-0-array" count="960">1 0 0.6460846 0.2118513 0.4798967 0.2118513 0.496122 0.7130728 0.6889347 0.6845913 1 1 0.625 0.75 0.375 1 0.375 0.75 0.625 0 0.375 0.25 0.375 0 0.125 0.75 0.1595347 0.6918995 0.2449741 0.6970371 0.2443091 0.5723044 0.125 0.5 0.2490305 0.5717318 0.625 0.5 0.375 0.75 0.375 0.5 0.625 0.25 0.375 0.5 0.375 0.25 0 0 0 0 0 0 0 0 0 0 0 0 0 0 0 0 0 0 0 0 0 0 0 0 0 0 0 0 0 0 0 0 0 0 0 0 0 0 0 0 0 0 0 0 0 0 0 0 0 0 0 0 0 0 0 0 0 0 0 0 0 0 0 0 0 0 0 0 0 0 0 0 0 0 0 0 0 0 0 0 0 0 0 0 0 0 0 0 0 0 0 0 0 0 0 0 0 0 0 0 0 0 0 0 0 0 0 0 0 0 0 0 0 0 0 0 0 0 0 0 0 0 0 0 0 0 0 0 0 0 0 0 0 0 0 0 0 0 0 0 0 0 0 0 0 0 0 0 0 0 0 0 0 0 0 0 0 0 0 0 0 0 0 0 0 0 0 0 0 0 0 0 0 0 0 0 0 0 0 0 0 0 0 0 0 0 0 0 0 0 0 0 0 0 0 0 0 0 0 0 0 0 0 0 0 0 0 0 0 0 0 0 0 0 0 0 0 0 0 0 0 0 0 0 0 0 0 0 0 0 0 0 0 0 0 0 0 0 0 0 0 0 0 0 0 0 0 0 0 0 0 0 0.4798967 0.2118513 0.1381389 0.2324015 0 0 0 0 1 0 0.4798967 0.2118513 0.4543017 0.6896626 0.4553204 0.6888284 0.4770421 0.6937469 0.4543017 0.6896626 0.4770421 0.6937469 0.496122 0.7130728 0.2918316 0.6518099 0.4509347 0.6878354 0.4543017 0.6896626 0.1706851 0.4614543 0.1708613 0.4616741 0.1398068 0.4948882 0.2918316 0.6518099 0.4543017 0.6896626 0 1 0.4543017 0.6896626 0.496122 0.7130728 0 1 0.1637113 0.4461282 0.1706851 0.4614543 0.1398068 0.4948882 0.1613566 0.4301894 0.1637113 0.4461282 0.1434998 0.4039505 0.1637113 0.4461282 0.1398068 0.4948882 0.1434998 0.4039505 0.1434998 0.4039505 0.1676896 0.4055077 0.1637114 0.4142507 0.1637114 0.4142507 0.1613566 0.4301894 0.1434998 0.4039505 0 0 0.1381389 0.2324015 0.1354585 0.3405131 0.1354585 0.3405131 0.1434998 0.4039505 0.1398068 0.4948882 0 0 0.1354585 0.3405131 0.1398068 0.4948882 0.719797 0.318176 0.6460846 0.2118513 1 0 0.7041941 0.492909 0.6929925 0.3860808 0.7399005 0.3628502 0.7399005 0.3628502 0.719797 0.318176 1 0 0 1 0 0 0.1398068 0.4948882 0 1 0.1398068 0.4948882 0.2918316 0.6518099 0.7399005 0.3628502 1 0 1 1 0.7091084 0.4995003 0.7041941 0.492909 0.7399005 0.3628502 0.6803568 0.6686473 0.7066056 0.5003297 0.7091084 0.4995003 0.6889347 0.6845913 0.6803568 0.6686473 0.7091084 0.4995003 0.7091084 0.4995003 0.7399005 0.3628502 1 1 1 1 0 1 0.496122 0.7130728 0.6889347 0.6845913 0.7091084 0.4995003 1 1 0.625 0.75 0.625 1 0.375 1 0.625 0 0.625 0.25 0.375 0.25 0.2449741 0.6970371 0.2865211 0.6970371 0.375 0.75 0.375 0.75 0.125 0.75 0.2449741 0.6970371 0.1659278 0.6464374 0.1669224 0.6486231 0.1608749 0.6490124 0.1588646 0.6648717 0.1595347 0.6918995 0.125 0.75 0.1653391 0.6424526 0.1659278 0.6464374 0.1608749 0.6490124 0.1608749 0.6490124 0.1588646 0.6648717 0.1599517 0.626278 0.1588646 0.6648717 0.125 0.75 0.1599517 0.626278 0.375 0.75 0.2865211 0.6970371 0.3049492 0.6704561 0.3099751 0.6592875 0.2982481 0.6534798 0.3010485 0.6267727 0.375 0.75 0.3049492 0.6704561 0.3099751 0.6592875 0.125 0.75 0.125 0.5 0.1599517 0.626278 0.1659278 0.6384679 0.1653391 0.6424526 0.1608749 0.6490124 0.1599517 0.626278 0.1677153 0.6345815 0.1676713 0.6346363 0.1676713 0.6346363 0.1659278 0.6384679 0.1599517 0.626278 0.1659278 0.6384679 0.1608749 0.6490124 0.1599517 0.626278 0.375 0.5 0.375 0.75 0.3099751 0.6592875 0.3099751 0.6592875 0.3010485 0.6267727 0.3022771 0.625125 0.3022771 0.625125 0.3016514 0.6249176 0.2950891 0.5828381 0.3022771 0.625125 0.2950891 0.5828381 0.2972337 0.5788522 0.375 0.5 0.3099751 0.6592875 0.3022771 0.625125 0.2443091 0.5723044 0.230878 0.5795935 0.125 0.5 0.230878 0.5795935 0.1979579 0.5870475 0.125 0.5 0.1979579 0.5870475 0.1599517 0.626278 0.125 0.5 0.375 0.5 0.3022771 0.625125 0.2972337 0.5788522 0.2490305 0.5717318 0.2466072 0.5741863 0.2443091 0.5723044 0.375 0.5 0.2972337 0.5788522 0.2490305 0.5717318 0.125 0.5 0.375 0.5 0.2490305 0.5717318 0.625 0.5 0.625 0.75 0.375 0.75 0.625 0.25 0.625 0.5 0.375 0.5 0 0 0 0 0 0 0 0 0 0 0 0 0 0 0 0 0 0 0 0 0 0 0 0 0 0 0 0 0 0 0 0 0 0 0 0 0 0 0 0 0 0 0 0 0 0 0 0 0 0 0 0 0 0 0 0 0 0 0 0 0 0 0 0 0 0 0 0 0 0 0 0 0 0 0 0 0 0 0 0 0 0 0 0 0 0 0 0 0 0 0 0 0 0 0 0 0 0 0 0 0 0 0 0 0 0 0 0 0 0 0 0 0 0 0 0 0 0 0 0 0 0 0 0 0 0 0 0 0 0 0 0 0 0 0 0 0 0 0 0 0 0 0 0 0 0 0 0 0 0 0 0 0 0 0 0 0 0 0 0 0 0 0 0 0 0 0 0 0 0 0 0 0 0 0 0 0 0 0 0 0 0 0 0 0 0 0 0 0 0 0 0 0 0 0 0 0 0 0 0 0 0 0 0 0 0 0 0 0 0 0 0 0 0 0 0 0 0 0 0 0 0 0 0 0 0 0 0 0 0 0 0 0 0 0 0 0 0 0 0 0 0 0 0 0 0 0 0 0 0 0 0 0 0 0 0 0 0 0 0 0 0 0 0 0 0 0 0 0 0 0 0 0 0 0 0 0 0 0 0 0 0 0 0 0 0 0 0 0 0 0 0 0 0 0 0 0 0 0 0 0 0 0 0 0 0</float_array>
          <technique_common>
            <accessor source="#Cube-mesh-map-0-array" count="480" stride="2">
              <param name="S" type="float"/>
              <param name="T" type="float"/>
            </accessor>
          </technique_common>
        </source>
        <source id="Cube-mesh-map-1">
          <float_array id="Cube-mesh-map-1-array" count="960">0 0 0 0 0 0 0 0 0 0 0 0 0 0 0 0 0 0 0 0 0 0 0 0 0 0 0 0 0 0 0 0 0 0 0 0 0 0 0 0 0 0 0 0 0 0 0 0 0 0 0 0 0 0 0 0 0 0 0 0 0 0 0 0 0 0 0 0 0 0 0 0 0 0 0 0 0 0 0 0 0 0 0 0 0 0 0 0 0 0 0 0 0 0 0 0 0 0 0 0 0 0 0 0 0 0 0 0 0 0 0 0 0 0 0 0 0 0 0 0 0 0 0 0 0 0 0 0 0 0 0 0 0 0 0 0 0 0 0 0 0 0 0 0 0 0 0 0 0 0 0 0 0 0 0 0 0 0 0 0 0 0 0 0 0 0 0 0 0 0 0 0 0 0 0 0 0 0 0 0 0 0 0 0 0 0 0 0 0 0 0 0 0 0 0 0 0 0 0.28125 1 0.299077 0.7485893 0.28125 0.7485893 0.25 1 0.28125 0.7485893 0.25 0.7485893 0.21875 1 0.25 0.7485893 0.21875 0.7485893 0.1875 1 0.21875 0.7485893 0.1875 0.7485893 0.1875 1 0.1870141 0.7485893 0.187014 1 0.21875 1 0.1875 1 0.21875 1 0.187014 1 0.1875 1 0.187014 1 0.28125 1 0.299077 1 0.28125 1 0.28125 1 0.25 1 0.28125 1 0.25 1 0.21875 1 0.25 1 0.4757346 0.25 0.625 0.1793392 0.4757346 0.1793392 0.625 0.25 0.4757346 0.2648515 0.625 0.2648515 0.8549116 0.516609 0.8630632 0.5385425 0.8647091 0.5385425 0.578023 0.25 0.5444449 0.2455715 0.5444449 0.25 0.578023 0.25 0.5444449 0.2516458 0.578023 0.2516458 0.4922136 0.25 0.5755469 0.2471492 0.4922136 0.2471492 0.4922136 0.25 0.5755469 0.2612618 0.5755469 0.25 0 0 0 0 0 0 0 0 0 0 0 0 0 0 0 0 0 0 0 0 0 0 0 0 0 0 0 0 0 0 0 0 0 0 0 0 0 0 0 0 0 0 0 0 0 0 0 0 0 0 0 0 0 0 0 0 0 0 0 0 0 0 0 0 0 0 0 0 0 0 0 0 0 0 0 0 0 0 0 0 0 0 0 0 0 0 0 0 0 0 0 0 0 0 0 0 0 0 0 0 0 0 0 0 0 0 0 0 0 0 0 0 0 0 0 0 0 0 0 0 0 0 0 0 0 0 0 0 0 0 0 0 0 0 0 0 0 0 0 0 0 0 0 0 0 0 0 0 0 0 0 0 0 0 0 0 0 0 0 0 0 0 0 0 0 0 0 0 0 0 0 0 0 0 0 0 0 0 0 0 0 0 0 0 0 0 0 0 0 0 0 0 0 0 0 0 0 0 0 0 0 0 0 0 0 0 0 0 0 0 0 0 0 0 0 0 0 0 0 0 0 0 0 0 0 0 0 0 0 0 0 0 0 0 0 0 0 0 0 0 0 0 0 0 0 0 0 0 0 0 0 0 0 0 0 0 0 0 0 0 0 0 0 0 0 0 0 0 0 0 0 0 0 0 0 0 0 0 0 0 0 0 0 0 0 0 0 0 0 0 0 0 0 0 0 0 0 0 0 0 0 0 0 0 0 0 0 0 0 0 0 0 0 0 0 0 0 0 0 0 0 0 0 0 0 0 0 0 0 0 0 0 0 0 0 0 0 0 0 0 0 0 0 0 0 0 0 0 0 0 0 0 0 0 0 0 0 0 0 0 0 0 0 0 0 0 0 0 0 0 0 0 0 0 0 0 0 0 0 0 0 0 0 0 0 0 0 0 0 0 0 0 0 0 0 0 0 0 0 0 0 0 0 0 0 0 0 0 0 0 0 0 0 0 0 0 0 0 0 0 0 0 0 0 0 0 0 0 0 0 0 0 0 0 0 0 0 0 0 0 0 0 0 0 0 0 0 0 0 0 0 0 0 0 0 0 0 0 0 0 0 0 0 0 0 0 0 0 0 0 0 0 0 0 0 0 0 0 0 0 0 0 0 0 0 0 0 0 0 0 0 0 0 0 0 0 0 0 0 0 0 0 0 0 0 0 0 0 0 0 0 0 0 0 0 0 0 0 0 0 0 0 0 0 0 0 0 0 0 0 0 0 0 0 0 0 0 0 0 0 0.28125 1 0.299077 1 0.299077 0.7485893 0.25 1 0.28125 1 0.28125 0.7485893 0.21875 1 0.25 1 0.25 0.7485893 0.1875 1 0.21875 1 0.21875 0.7485893 0.1875 1 0.1875 0.7485893 0.1870141 0.7485893 0.21875 1 0.1875 1 0.1875 1 0.187014 1 0.1875 1 0.1875 1 0.28125 1 0.299077 1 0.299077 1 0.28125 1 0.25 1 0.25 1 0.25 1 0.21875 1 0.21875 1 0.4757346 0.25 0.625 0.25 0.625 0.1793392 0.625 0.25 0.4757346 0.25 0.4757346 0.2648515 0.8647091 0.5385425 0.864709 0.5429709 0.875 0.5706607 0.875 0.5706607 0.875 0.5 0.8647091 0.5385425 0.875 0.5 0.8601486 0.5 0.8549116 0.516609 0.8647091 0.5385425 0.875 0.5 0.8549116 0.516609 0.578023 0.25 0.578023 0.2455716 0.5444449 0.2455715 0.578023 0.25 0.5444449 0.25 0.5444449 0.2516458 0.4922136 0.25 0.5755469 0.25 0.5755469 0.2471492 0.4922136 0.25 0.4922136 0.2612618 0.5755469 0.2612618</float_array>
          <technique_common>
            <accessor source="#Cube-mesh-map-1-array" count="480" stride="2">
              <param name="S" type="float"/>
              <param name="T" type="float"/>
            </accessor>
          </technique_common>
        </source>
        <vertices id="Cube-mesh-vertices">
          <input semantic="POSITION" source="#Cube-mesh-positions"/>
        </vertices>
        <triangles material="Material-material" count="152">
          <input semantic="VERTEX" source="#Cube-mesh-vertices" offset="0"/>
          <input semantic="NORMAL" source="#Cube-mesh-normals" offset="1"/>
          <input semantic="TEXCOORD" source="#Cube-mesh-map-0" offset="2" set="0"/>
          <input semantic="TEXCOORD" source="#Cube-mesh-map-1" offset="2" set="1"/>
          <p>2 0 0 24 0 1 18 0 2 15 0 3 23 0 4 0 0 5 2 1 6 8 1 7 3 1 8 7 2 9 6 2 10 8 2 11 8 3 12 36 3 13 46 3 14 63 4 15 6 4 16 27 4 17 0 5 18 3 5 19 1 5 20 5 6 21 1 6 22 6 6 23 10 7 24 36 7 25 37 7 26 20 8 27 81 8 28 31 8 29 25 9 30 85 9 31 84 9 32 13 10 33 39 10 34 44 10 35 64 11 36 71 11 37 72 11 38 65 12 39 27 12 40 15 12 41 21 13 42 31 13 43 29 13 44 44 14 45 61 14 46 66 14 47 64 15 48 70 15 49 74 15 50 16 16 51 64 16 52 67 16 53 23 17 54 27 17 55 33 17 56 21 18 57 30 18 58 22 18 59 16 19 60 76 19 61 75 19 62 14 20 63 28 20 64 35 20 65 22 21 66 45 21 67 24 21 68 23 22 69 34 22 70 26 22 71 28 23 72 26 23 73 34 23 74 41 24 75 55 24 76 59 24 77 24 6 78 46 6 79 18 6 80 14 25 81 34 25 82 26 25 83 34 26 84 79 26 85 26 26 86 12 27 87 37 27 88 41 27 89 18 28 90 36 28 91 9 28 92 32 29 93 86 29 94 87 29 95 11 30 96 50 30 97 60 30 98 38 31 99 55 31 100 53 31 101 40 32 102 53 32 103 54 32 104 42 33 105 54 33 106 58 33 107 43 34 108 58 34 109 57 34 110 43 35 111 56 35 112 60 35 113 42 36 114 51 36 115 52 36 116 50 37 117 43 37 118 60 37 119 47 38 120 59 38 121 38 38 122 38 39 123 48 39 124 47 39 125 40 40 126 52 40 127 48 40 128 63 41 129 66 41 130 61 41 131 4 42 132 62 42 133 65 42 134 64 43 135 74 43 136 77 43 137 18 48 150 9 48 151 7 48 152 7 0 153 2 0 154 18 0 155 69 0 156 70 0 157 17 0 158 69 0 159 17 0 160 15 0 161 13 49 162 68 49 163 69 49 164 51 0 165 50 0 166 11 0 167 13 50 168 69 50 169 5 50 170 69 51 171 15 51 172 5 51 173 52 0 174 51 0 175 11 0 176 48 52 177 52 52 178 12 52 179 52 0 180 11 0 181 12 0 182 12 0 183 49 0 184 47 0 185 47 53 186 48 53 187 12 53 188 7 54 189 9 54 190 10 54 191 10 55 192 12 55 193 11 55 194 7 56 195 10 56 196 11 56 197 22 57 198 24 57 199 2 57 200 78 58 201 20 58 202 21 58 203 21 0 204 22 0 205 2 0 206 5 0 207 7 0 208 11 0 209 5 59 210 11 59 211 13 59 212 21 0 213 2 0 214 0 0 215 80 0 216 78 0 217 21 0 218 26 60 219 79 60 220 80 60 221 23 0 222 26 0 223 80 0 224 80 61 225 21 61 226 0 61 227 0 0 228 5 0 229 15 0 230 23 0 231 80 0 232 0 0 233 2 1 234 7 1 235 8 1 236 7 2 237 5 2 238 6 2 239 46 4 240 45 4 241 3 4 242 3 4 243 8 4 244 46 4 245 53 62 246 55 62 247 41 62 248 37 63 249 36 63 250 8 63 251 54 64 252 53 64 253 41 64 254 41 65 255 37 65 256 39 65 257 37 4 258 8 4 259 39 4 260 3 66 261 45 66 262 30 66 263 29 4 264 31 4 265 81 4 266 3 67 267 30 67 268 29 67 269 8 4 270 6 4 271 39 4 272 58 68 273 54 68 274 41 68 275 39 69 276 56 69 277 57 69 278 57 4 279 58 4 280 39 4 281 58 4 282 41 4 283 39 4 284 1 70 285 3 70 286 29 70 287 29 71 288 81 71 289 83 71 290 83 72 291 82 72 292 34 72 293 83 73 294 34 73 295 33 73 296 1 74 297 29 74 298 83 74 299 63 4 300 61 4 301 6 4 302 61 4 303 44 4 304 6 4 305 44 4 306 39 4 307 6 4 308 1 75 309 83 75 310 33 75 311 27 4 312 62 4 313 63 4 314 1 76 315 33 76 316 27 76 317 6 4 318 1 4 319 27 4 320 0 5 321 2 5 322 3 5 323 5 6 324 0 6 325 1 6 326 10 7 327 9 7 328 36 7 329 20 77 330 78 77 331 81 77 332 25 9 333 32 9 334 85 9 335 13 78 336 11 78 337 39 78 338 64 79 339 17 79 340 71 79 341 65 80 342 62 80 343 27 80 344 15 81 345 17 81 346 65 81 347 17 82 348 64 82 349 65 82 350 21 83 351 20 83 352 31 83 353 73 84 354 68 84 355 66 84 356 68 85 357 13 85 358 66 85 359 13 86 360 44 86 361 66 86 362 64 87 363 17 87 364 70 87 365 16 88 366 17 88 367 64 88 368 23 89 369 15 89 370 27 89 371 21 90 372 29 90 373 30 90 374 16 91 375 67 91 376 76 91 377 14 92 378 19 92 379 28 92 380 22 93 381 30 93 382 45 93 383 23 94 384 33 94 385 34 94 386 28 95 387 19 95 388 26 95 389 59 96 390 49 96 391 12 96 392 12 97 393 41 97 394 59 97 395 24 6 396 45 6 397 46 6 398 14 25 399 35 25 400 34 25 401 34 98 402 82 98 403 79 98 404 12 99 405 10 99 406 37 99 407 18 28 408 46 28 409 36 28 410 32 29 411 25 29 412 86 29 413 60 100 414 56 100 415 39 100 416 39 101 417 11 101 418 60 101 419 38 102 420 59 102 421 55 102 422 40 32 423 38 32 424 53 32 425 42 33 426 40 33 427 54 33 428 43 103 429 42 103 430 58 103 431 43 104 432 57 104 433 56 104 434 42 105 435 43 105 436 51 105 437 50 106 438 51 106 439 43 106 440 47 107 441 49 107 442 59 107 443 38 108 444 40 108 445 48 108 446 40 109 447 42 109 448 52 109 449 63 41 450 4 41 451 66 41 452 4 110 453 63 110 454 62 110 455 77 4 456 73 4 457 66 4 458 66 4 459 4 4 460 77 4 461 4 111 462 65 111 463 64 111 464 77 112 465 4 112 466 64 112 467</p>
        </triangles>
      </mesh>
    </geometry>
  </library_geometries>
  <library_visual_scenes>
    <visual_scene id="Scene" name="Scene">
      <node id="Camera" name="Camera" type="NODE">
        <matrix sid="transform">0.6859207 -0.3240135 0.6515582 7.358891 0.7276763 0.3054208 -0.6141704 -6.925791 0 0.8953956 0.4452714 4.958309 0 0 0 1</matrix>
        <instance_camera url="#Camera-camera"/>
      </node>
      <node id="Light" name="Light" type="NODE">
        <matrix sid="transform">-0.2908646 -0.7711008 0.5663932 4.076245 0.9551712 -0.1998834 0.2183912 1.005454 -0.05518906 0.6045247 0.7946723 5.903862 0 0 0 1</matrix>
        <instance_light url="#Light-light"/>
      </node>
      <node id="Cube" name="Cube" type="NODE">
        <matrix sid="transform">4.08 0 0 0.2694316 0 6.12 0 -1.051402 0 0 1 0.6946923 0 0 0 1</matrix>
        <instance_geometry url="#Cube-mesh" name="Cube">
          <bind_material>
            <technique_common>
              <instance_material symbol="Material-material" target="#Material-material">
                <bind_vertex_input semantic="UVMap" input_semantic="TEXCOORD" input_set="0"/>
                <bind_vertex_input semantic="UV 贴图" input_semantic="TEXCOORD" input_set="1"/>
              </instance_material>
            </technique_common>
          </bind_material>
        </instance_geometry>
      </node>
    </visual_scene>
  </library_visual_scenes>
  <scene>
    <instance_visual_scene url="#Scene"/>
  </scene>
</COLLADA>